<?xml version="1.0" standalone="no"?><!-- Generator: Gravit.io --><svg xmlns="http://www.w3.org/2000/svg" xmlns:xlink="http://www.w3.org/1999/xlink" style="isolation:isolate" viewBox="0 0 1024 1024" width="1024" height="1024"><g><g><path d=" M 728.467 387.023 L 704.45 400.889 L 512 512 L 728.506 637 L 945.013 762 L 945.013 512 L 945.013 262 L 728.506 387 L 728.467 387.023 Z  M 512 512 L 512 262 L 512 12 L 728.506 137 L 945.013 262 L 945.013 262 L 728.506 387 L 728.467 387.023 L 704.45 400.889 L 512 512 Z " fill-rule="evenodd" fill="rgb(2,134,249)"/><path d=" M 512 512 L 512 762 L 512 762 L 512 1012 L 295.494 887 L 78.987 762 L 295.494 637 L 512 512 Z  M 512 512 L 512 762 L 512 1012 L 512 1012 L 728.506 887 L 945.013 762 L 728.506 637 L 512 512 Z " fill-rule="evenodd" fill="rgb(83,83,83)"/><path d=" M 235.696 352.476 L 295.494 387 L 512 512 L 512 512 L 295.494 637 L 78.987 762 L 78.987 512 L 78.987 262 L 235.696 352.476 Z  M 512 512 L 512 262 L 512 12 L 295.494 137 L 78.987 262 L 235.696 352.476 L 295.494 387 L 512 512 L 512 512 Z " fill-rule="evenodd" fill="rgb(42,96,142)"/></g><g><path d=" M 512 512 L 295.494 637 L 295.494 637 L 78.987 762 L 78.987 512 L 78.987 262 L 295.494 387 L 512 512 Z  M 512 512 L 295.494 637 L 78.987 762 L 78.987 762 L 295.494 887 L 512 1012 L 512 762 L 512 512 Z " fill-rule="evenodd" fill="rgb(0,0,0)" fill-opacity="0.31"/><path d=" M 512 192.951 L 512 262 L 512 512 L 512 512 L 295.494 387 L 78.987 262 L 295.494 137 L 512 12 L 512 192.951 Z  M 512 512 L 728.506 387 L 945.013 262 L 728.506 137 L 512 12 L 512 192.951 L 512 262 L 512 512 L 512 512 Z " fill-rule="evenodd" fill="rgb(0,0,0)" fill-opacity="0.2"/></g></g></svg>